; OM File Header - Saved 2021/05/01 14:39:37
; (6.18 :patc (om-make-point 692 234) (om-make-point 50 50) (om-make-point 1146 610) "" 183 0 "2021/05/01 14:30:14" "2021/05/01 14:38:18")
; End File Header
(in-package :om)(load-lib-for (quote ("OMCS" "OM-AIS")))(setf *om-current-persistent* (om-load-patch1 "link-chords-two-instances" (quote ((let ((box (om-load-boxcall (quote genfun) "LINK-CHORDS-TWO-INSTANCES 2" (quote om-ais::link-chords-two-instances) (quote nil) (om-make-point 899 174) nil nil nil nil 1))) (when (fboundp (quote set-active)) (set-active box nil)) box) (let ((box (om-load-boxcall (quote abstraction) "LINK-CHORDS-TWO-INSTANCES" (om-load-patch-abs1 "LINK-CHORDS-TWO-INSTANCES" (quote ((let ((box (om-load-boxcall (quote bastype) "aux 2" (quote t) (quote nil) (om-make-point 596 552) (om-make-point 27 30) 2 "2" nil))) (when (fboundp (quote set-active)) (set-active box nil)) box) (let ((box (om-load-boxcall (quote genfun) "OM=" (quote om=) (quote ((om-load-inputfun (quote input-funbox) "a number" "A" 0) (om-load-inputfun (quote input-funbox) "a number" "B" 0))) (om-make-point 569 597) (om-make-point 22 35) nil nil nil 1))) (when (fboundp (quote set-active)) (set-active box nil)) box) (let ((box (om-load-boxcall (quote abstraction) "forte-name 7" (om-load-patch-abs1 "forte-name" (quote ((let ((box (om-load-boxout "output" 0 (om-make-point 173 323) (quote ((om-load-inputfun (quote input-funbox) "" "out" nil))) nil nil))) (when (fboundp (quote set-active)) (set-active box nil)) box) (let ((box (om-load-boxin "input" 0 (om-make-point 195 29) "" nil nil nil))) (when (fboundp (quote set-active)) (set-active box nil)) box) (let ((box (om-load-boxcall (quote lispfun) "LENGTH" (quote length) (quote ((om-load-inputfun (quote input-funbox) "SEQUENCE" "SEQUENCE" nil))) (om-make-point 160 163) nil nil nil nil 1))) (when (fboundp (quote set-active)) (set-active box nil)) box) (let ((box (om-load-boxcall (quote genfun) "SUB-POWER 2" (quote sub-power) (quote ((om-load-inputfunmenu1 (quote input-funmenu) "" "TYPE" (quote :fn) (list (list "fn" (quote :fn)) (list "integer" (quote :integer)) (list "pitch" (quote :pitch)))) (om-load-inputfun (quote input-funbox) "" "LOW" 3) (om-load-inputfun (quote input-funbox) "" "HIGH" 3) (om-load-inputfun (quote input-funbox) "" "SET" (list 11 0 5 6)))) (om-make-point 149 225) nil nil nil nil 1))) (when (fboundp (quote set-active)) (set-active box nil)) box))) (quote ((3 0 0 0 nil 0) (1 0 2 0 nil 0) (2 0 3 1 nil 0) (2 0 3 2 nil 0) (1 0 3 3 nil 0))) 6.18 nil "" (om-make-point 199 200) (om-make-point 500 400)) (quote ((om-load-inputfun (quote input-funbox) "" "input" nil))) (om-make-point 359/2 342) nil (list (quote |6-Z25|)) nil "forte-name"))) (when (fboundp (quote set-active)) (set-active box nil)) box) (let ((box (om-load-boxcall (quote genfun) "ALL-ROTATIONS" (quote om-ais::all-rotations) (quote ((om-load-inputfun (quote input-funbox) "AIS - list of pitch-classes" "PCS" (list 0 1 3 2 7 10 8 4 11 5 9 6)))) (om-make-point 641 181) nil nil nil nil 1))) (when (fboundp (quote set-active)) (set-active box nil)) box) (let ((box (om-load-boxcall (quote genfun) "FIRST-N" (quote first-n) (quote ((om-load-inputfun (quote input-funbox) "a list" "LIST" nil) (om-load-inputfun (quote input-funbox) "number of elements" "N" 0))) (om-make-point 454 200) nil nil "l" nil 1))) (when (fboundp (quote set-active)) (set-active box nil)) box) (let ((box (om-load-boxcall (quote bastype) "aux" (quote t) (quote nil) (om-make-point 508 170) (om-make-point 27 30) 6 "6" nil))) (when (fboundp (quote set-active)) (set-active box nil)) box) (let ((box (om-load-boxcall (quote lispfun) "MAPCAR" (quote mapcar) (quote ((om-load-inputfun (quote input-funbox) "FUNCTION" "FUNCTION" nil) (om-load-inputfun (quote input-funbox) "LIST" "LIST" nil))) (om-make-point 546 229) nil nil nil nil 1))) (when (fboundp (quote set-active)) (set-active box nil)) box) (let ((box (let ((box (om-load-boxcall (quote genfun) "LIST-ELEMENTS" (quote list-elements) (quote ((om-load-inputfun (quote input-funbox) "a list" "LIST" nil))) (om-make-point 524 275) (om-make-point 88 59) nil nil nil 7))) (setf (numouts box) 7) box))) (when (fboundp (quote set-active)) (set-active box nil)) box) (let ((box (om-load-boxcall (quote abstraction) "forte-name 6" (om-load-patch-abs1 "forte-name" (quote ((let ((box (om-load-boxout "output" 0 (om-make-point 50 136) (quote ((om-load-inputfun (quote input-funbox) "" "out" nil))) nil nil))) (when (fboundp (quote set-active)) (set-active box nil)) box) (let ((box (om-load-boxin "input" 0 (om-make-point 345 50) "" nil nil nil))) (when (fboundp (quote set-active)) (set-active box nil)) box) (let ((box (om-load-boxcall (quote lispfun) "LENGTH" (quote length) (quote ((om-load-inputfun (quote input-funbox) "SEQUENCE" "SEQUENCE" nil))) (om-make-point 160 163) nil nil nil nil 1))) (when (fboundp (quote set-active)) (set-active box nil)) box) (let ((box (om-load-boxcall (quote genfun) "SUB-POWER 2" (quote sub-power) (quote ((om-load-inputfunmenu1 (quote input-funmenu) "" "TYPE" (quote :fn) (list (list "fn" (quote :fn)) (list "integer" (quote :integer)) (list "pitch" (quote :pitch)))) (om-load-inputfun (quote input-funbox) "" "LOW" 3) (om-load-inputfun (quote input-funbox) "" "HIGH" 3) (om-load-inputfun (quote input-funbox) "" "SET" (list 11 0 5 6)))) (om-make-point 149 225) nil nil nil nil 1))) (when (fboundp (quote set-active)) (set-active box nil)) box))) (quote ((3 0 0 0 nil 0) (1 0 2 0 nil 0) (2 0 3 1 nil 0) (2 0 3 2 nil 0) (1 0 3 3 nil 0))) 6.18 nil "" (om-make-point 200 200) (om-make-point 500 400)) (quote ((om-load-inputfun (quote input-funbox) "" "input" nil))) (om-make-point 575/2 342) nil (list (quote |6-27|)) nil "forte-name"))) (when (fboundp (quote set-active)) (set-active box nil)) box) (let ((box (om-load-boxcall (quote abstraction) "forte-name 5" (om-load-patch-abs1 "forte-name" (quote ((let ((box (om-load-boxout "output" 0 (om-make-point 50 136) (quote ((om-load-inputfun (quote input-funbox) "" "out" nil))) nil nil))) (when (fboundp (quote set-active)) (set-active box nil)) box) (let ((box (om-load-boxin "input" 0 (om-make-point 345 50) "" nil nil nil))) (when (fboundp (quote set-active)) (set-active box nil)) box) (let ((box (om-load-boxcall (quote lispfun) "LENGTH" (quote length) (quote ((om-load-inputfun (quote input-funbox) "SEQUENCE" "SEQUENCE" nil))) (om-make-point 160 163) nil nil nil nil 1))) (when (fboundp (quote set-active)) (set-active box nil)) box) (let ((box (om-load-boxcall (quote genfun) "SUB-POWER 2" (quote sub-power) (quote ((om-load-inputfunmenu1 (quote input-funmenu) "" "TYPE" (quote :fn) (list (list "fn" (quote :fn)) (list "integer" (quote :integer)) (list "pitch" (quote :pitch)))) (om-load-inputfun (quote input-funbox) "" "LOW" 3) (om-load-inputfun (quote input-funbox) "" "HIGH" 3) (om-load-inputfun (quote input-funbox) "" "SET" (list 11 0 5 6)))) (om-make-point 149 225) nil nil nil nil 1))) (when (fboundp (quote set-active)) (set-active box nil)) box))) (quote ((3 0 0 0 nil 0) (1 0 2 0 nil 0) (2 0 3 1 nil 0) (2 0 3 2 nil 0) (1 0 3 3 nil 0))) 6.18 nil "" (om-make-point 200 200) (om-make-point 500 400)) (quote ((om-load-inputfun (quote input-funbox) "" "input" nil))) (om-make-point 791/2 342) nil (list (quote |6-Z11|)) nil "forte-name"))) (when (fboundp (quote set-active)) (set-active box nil)) box) (let ((box (om-load-boxcall (quote abstraction) "forte-name 4" (om-load-patch-abs1 "forte-name" (quote ((let ((box (om-load-boxout "output" 0 (om-make-point 50 136) (quote ((om-load-inputfun (quote input-funbox) "" "out" nil))) nil nil))) (when (fboundp (quote set-active)) (set-active box nil)) box) (let ((box (om-load-boxin "input" 0 (om-make-point 345 50) "" nil nil nil))) (when (fboundp (quote set-active)) (set-active box nil)) box) (let ((box (om-load-boxcall (quote lispfun) "LENGTH" (quote length) (quote ((om-load-inputfun (quote input-funbox) "SEQUENCE" "SEQUENCE" nil))) (om-make-point 160 163) nil nil nil nil 1))) (when (fboundp (quote set-active)) (set-active box nil)) box) (let ((box (om-load-boxcall (quote genfun) "SUB-POWER 2" (quote sub-power) (quote ((om-load-inputfunmenu1 (quote input-funmenu) "" "TYPE" (quote :fn) (list (list "fn" (quote :fn)) (list "integer" (quote :integer)) (list "pitch" (quote :pitch)))) (om-load-inputfun (quote input-funbox) "" "LOW" 3) (om-load-inputfun (quote input-funbox) "" "HIGH" 3) (om-load-inputfun (quote input-funbox) "" "SET" (list 11 0 5 6)))) (om-make-point 149 225) nil nil nil nil 1))) (when (fboundp (quote set-active)) (set-active box nil)) box))) (quote ((3 0 0 0 nil 0) (1 0 2 0 nil 0) (2 0 3 1 nil 0) (2 0 3 2 nil 0) (1 0 3 3 nil 0))) 6.18 nil "" (om-make-point 200 200) (om-make-point 500 400)) (quote ((om-load-inputfun (quote input-funbox) "" "input" nil))) (om-make-point 1061/2 342) nil (list (quote |6-Z17|)) nil "forte-name"))) (when (fboundp (quote set-active)) (set-active box nil)) box) (let ((box (om-load-boxcall (quote abstraction) "forte-name 3" (om-load-patch-abs1 "forte-name" (quote ((let ((box (om-load-boxout "output" 0 (om-make-point 50 136) (quote ((om-load-inputfun (quote input-funbox) "" "out" nil))) nil nil))) (when (fboundp (quote set-active)) (set-active box nil)) box) (let ((box (om-load-boxin "input" 0 (om-make-point 345 50) "" nil nil nil))) (when (fboundp (quote set-active)) (set-active box nil)) box) (let ((box (om-load-boxcall (quote lispfun) "LENGTH" (quote length) (quote ((om-load-inputfun (quote input-funbox) "SEQUENCE" "SEQUENCE" nil))) (om-make-point 160 163) nil nil nil nil 1))) (when (fboundp (quote set-active)) (set-active box nil)) box) (let ((box (om-load-boxcall (quote genfun) "SUB-POWER 2" (quote sub-power) (quote ((om-load-inputfunmenu1 (quote input-funmenu) "" "TYPE" (quote :fn) (list (list "fn" (quote :fn)) (list "integer" (quote :integer)) (list "pitch" (quote :pitch)))) (om-load-inputfun (quote input-funbox) "" "LOW" 3) (om-load-inputfun (quote input-funbox) "" "HIGH" 3) (om-load-inputfun (quote input-funbox) "" "SET" (list 11 0 5 6)))) (om-make-point 149 225) nil nil nil nil 1))) (when (fboundp (quote set-active)) (set-active box nil)) box))) (quote ((3 0 0 0 nil 0) (1 0 2 0 nil 0) (2 0 3 1 nil 0) (2 0 3 2 nil 0) (1 0 3 3 nil 0))) 6.18 nil "" (om-make-point 200 200) (om-make-point 500 400)) (quote ((om-load-inputfun (quote input-funbox) "" "input" nil))) (om-make-point 1279/2 342) nil (list (quote |6-Z17|)) nil "forte-name"))) (when (fboundp (quote set-active)) (set-active box nil)) box) (let ((box (om-load-boxcall (quote abstraction) "forte-name 2" (om-load-patch-abs1 "forte-name" (quote ((let ((box (om-load-boxout "output" 0 (om-make-point 50 136) (quote ((om-load-inputfun (quote input-funbox) "" "out" nil))) nil nil))) (when (fboundp (quote set-active)) (set-active box nil)) box) (let ((box (om-load-boxin "input" 0 (om-make-point 345 50) "" nil nil nil))) (when (fboundp (quote set-active)) (set-active box nil)) box) (let ((box (om-load-boxcall (quote lispfun) "LENGTH" (quote length) (quote ((om-load-inputfun (quote input-funbox) "SEQUENCE" "SEQUENCE" nil))) (om-make-point 160 163) nil nil nil nil 1))) (when (fboundp (quote set-active)) (set-active box nil)) box) (let ((box (om-load-boxcall (quote genfun) "SUB-POWER 2" (quote sub-power) (quote ((om-load-inputfunmenu1 (quote input-funmenu) "" "TYPE" (quote :fn) (list (list "fn" (quote :fn)) (list "integer" (quote :integer)) (list "pitch" (quote :pitch)))) (om-load-inputfun (quote input-funbox) "" "LOW" 3) (om-load-inputfun (quote input-funbox) "" "HIGH" 3) (om-load-inputfun (quote input-funbox) "" "SET" (list 11 0 5 6)))) (om-make-point 149 225) nil nil nil nil 1))) (when (fboundp (quote set-active)) (set-active box nil)) box))) (quote ((3 0 0 0 nil 0) (1 0 2 0 nil 0) (2 0 3 1 nil 0) (2 0 3 2 nil 0) (1 0 3 3 nil 0))) 6.18 nil "" (om-make-point 200 200) (om-make-point 500 400)) (quote ((om-load-inputfun (quote input-funbox) "" "input" nil))) (om-make-point 1481/2 342) nil (list (quote |6-Z6|)) nil "forte-name"))) (when (fboundp (quote set-active)) (set-active box nil)) box) (let ((box (om-load-boxcall (quote abstraction) "forte-name" (om-load-patch-abs1 "forte-name" (quote ((let ((box (om-load-boxout "output" 0 (om-make-point 50 136) (quote ((om-load-inputfun (quote input-funbox) "" "out" nil))) nil nil))) (when (fboundp (quote set-active)) (set-active box nil)) box) (let ((box (om-load-boxin "input" 0 (om-make-point 345 50) "" nil nil nil))) (when (fboundp (quote set-active)) (set-active box nil)) box) (let ((box (om-load-boxcall (quote lispfun) "LENGTH" (quote length) (quote ((om-load-inputfun (quote input-funbox) "SEQUENCE" "SEQUENCE" nil))) (om-make-point 160 163) nil nil nil nil 1))) (when (fboundp (quote set-active)) (set-active box nil)) box) (let ((box (om-load-boxcall (quote genfun) "SUB-POWER 2" (quote sub-power) (quote ((om-load-inputfunmenu1 (quote input-funmenu) "" "TYPE" (quote :fn) (list (list "fn" (quote :fn)) (list "integer" (quote :integer)) (list "pitch" (quote :pitch)))) (om-load-inputfun (quote input-funbox) "" "LOW" 3) (om-load-inputfun (quote input-funbox) "" "HIGH" 3) (om-load-inputfun (quote input-funbox) "" "SET" (list 11 0 5 6)))) (om-make-point 149 225) nil nil nil nil 1))) (when (fboundp (quote set-active)) (set-active box nil)) box))) (quote ((3 0 0 0 nil 0) (1 0 2 0 nil 0) (2 0 3 1 nil 0) (2 0 3 2 nil 0) (1 0 3 3 nil 0))) 6.18 nil "" (om-make-point 200 200) (om-make-point 500 400)) (quote ((om-load-inputfun (quote input-funbox) "" "input" nil))) (om-make-point 1769/2 342) nil (list (quote |6-Z47|)) nil "forte-name"))) (when (fboundp (quote set-active)) (set-active box nil)) box) (let ((box (om-load-boxcall (quote lispfun) "LIST 3" (quote list) (quote ((om-load-inputfun (quote input-funbox) "add-input" "add-input" nil) (om-load-inputfun (quote input-funbox) "add-input" "add-input" nil) (om-load-inputfun (quote input-funbox) "add-input" "add-input" nil) (om-load-inputfun (quote input-funbox) "add-input" "add-input" nil) (om-load-inputfun (quote input-funbox) "add-input" "add-input" nil) (om-load-inputfun (quote input-funbox) "add-input" "add-input" nil) (om-load-inputfun (quote input-funbox) "add-input" "add-input" nil))) (om-make-point 528 441) nil nil nil nil 1))) (when (fboundp (quote set-active)) (set-active box nil)) box) (let ((box (om-load-boxcall (quote bastype) "list 2" (quote list) (quote nil) (om-make-point 370 444) (om-make-point 64 30) (quote |6-Z17|) "|6-Z17|" nil))) (when (fboundp (quote set-active)) (set-active box nil)) box) (let ((box (om-load-boxcall (quote lispfun) "REMOVE-IF" (quote remove-if) (quote ((om-load-inputfun (quote input-funbox) "PREDICATE" "PREDICATE" nil) (om-load-inputfun (quote input-funbox) "SEQUENCE" "SEQUENCE" nil))) (om-make-point 521 489) nil nil nil nil 1))) (when (fboundp (quote set-active)) (set-active box nil)) box) (let ((box (om-load-boxcall (quote abstraction) "remove-if-not-equal" (om-load-patch-abs1 "remove-if-not-equal" (quote ((let ((box (om-load-boxin "input 2" 1 (om-make-point 174 14) "" nil nil nil))) (when (fboundp (quote set-active)) (set-active box nil)) box) (let ((box (om-load-boxout "output" 0 (om-make-point 168 190) (quote ((om-load-inputfun (quote input-funbox) "" "out" nil))) nil nil))) (when (fboundp (quote set-active)) (set-active box nil)) box) (let ((box (om-load-boxin "input" 0 (om-make-point 93 10) "" nil nil nil))) (when (fboundp (quote set-active)) (set-active box nil)) box) (let ((box (om-load-boxcall (quote lispfun) "EQUAL" (quote equal) (quote ((om-load-inputfun (quote input-funbox) "X" "X" nil) (om-load-inputfun (quote input-funbox) "Y" "Y" nil))) (om-make-point 101 100) nil nil nil nil 1))) (when (fboundp (quote set-active)) (set-active box nil)) box) (let ((box (om-load-boxcall (quote lispfun) "NOT" (quote not) (quote ((om-load-inputfun (quote input-funbox) "X" "X" nil))) (om-make-point 132 147) nil nil nil nil 1))) (when (fboundp (quote set-active)) (set-active box nil)) box))) (quote ((4 0 1 0 nil 0) (2 0 3 0 nil 0) (0 0 3 1 nil 0) (3 0 4 0 nil 0))) 6.18 nil "" (om-make-point 200 200) (om-make-point 500 400)) (quote ((om-load-inputfun (quote input-funbox) "" "input" nil) (om-load-inputfun (quote input-funbox) "" "input 2" nil))) (om-make-point 719/2 961/2) nil (list nil) "l" "remove-if-not-equal"))) (when (fboundp (quote set-active)) (set-active box nil)) box) (let ((box (om-load-boxcall (quote lispfun) "LENGTH" (quote length) (quote ((om-load-inputfun (quote input-funbox) "SEQUENCE" "SEQUENCE" nil))) (om-make-point 527 540) nil nil nil nil 1))) (when (fboundp (quote set-active)) (set-active box nil)) box) (let ((box (om-load-boxin "input 12" 11 (om-make-point 1061 0) "" nil nil nil))) (when (fboundp (quote set-active)) (set-active box nil)) box) (let ((box (om-load-boxin "input 11" 10 (om-make-point 972 0) "" nil nil nil))) (when (fboundp (quote set-active)) (set-active box nil)) box) (let ((box (om-load-boxin "input 10" 9 (om-make-point 883 0) "" nil nil nil))) (when (fboundp (quote set-active)) (set-active box nil)) box) (let ((box (om-load-boxin "input 9" 8 (om-make-point 797 0) "" nil nil nil))) (when (fboundp (quote set-active)) (set-active box nil)) box) (let ((box (om-load-boxin "input 8" 7 (om-make-point 708 0) "" nil nil nil))) (when (fboundp (quote set-active)) (set-active box nil)) box) (let ((box (om-load-boxin "input 7" 6 (om-make-point 619 0) "" nil nil nil))) (when (fboundp (quote set-active)) (set-active box nil)) box) (let ((box (om-load-boxout "output" 0 (om-make-point 556 646) (quote ((om-load-inputfun (quote input-funbox) "" "out" nil))) nil nil))) (when (fboundp (quote set-active)) (set-active box nil)) box) (let ((box (om-load-boxcall (quote lispfun) "LIST" (quote list) (quote ((om-load-inputfun (quote input-funbox) "add-input" "add-input" nil) (om-load-inputfun (quote input-funbox) "add-input" "add-input" nil) (om-load-inputfun (quote input-funbox) "add-input" "add-input" nil) (om-load-inputfun (quote input-funbox) "add-input" "add-input" nil) (om-load-inputfun (quote input-funbox) "add-input" "add-input" nil) (om-load-inputfun (quote input-funbox) "add-input" "add-input" nil) (om-load-inputfun (quote input-funbox) "add-input" "add-input" nil) (om-load-inputfun (quote input-funbox) "add-input" "add-input" nil) (om-load-inputfun (quote input-funbox) "add-input" "add-input" nil) (om-load-inputfun (quote input-funbox) "add-input" "add-input" nil) (om-load-inputfun (quote input-funbox) "add-input" "add-input" nil) (om-load-inputfun (quote input-funbox) "add-input" "add-input" nil))) (om-make-point 18 113) (om-make-point 1157 43) nil nil nil 1))) (when (fboundp (quote set-active)) (set-active box nil)) box) (let ((box (om-load-boxin "input 6" 5 (om-make-point 530 0) "" nil nil nil))) (when (fboundp (quote set-active)) (set-active box nil)) box) (let ((box (om-load-boxin "input 5" 4 (om-make-point 441 0) "" nil nil nil))) (when (fboundp (quote set-active)) (set-active box nil)) box) (let ((box (om-load-boxin "input 4" 3 (om-make-point 352 0) "" nil nil nil))) (when (fboundp (quote set-active)) (set-active box nil)) box) (let ((box (om-load-boxin "input 3" 2 (om-make-point 263 0) "" nil nil nil))) (when (fboundp (quote set-active)) (set-active box nil)) box) (let ((box (om-load-boxin "input 2" 1 (om-make-point 174 0) "" nil nil nil))) (when (fboundp (quote set-active)) (set-active box nil)) box) (let ((box (om-load-boxin "input" 0 (om-make-point 91 0) "" nil nil nil))) (when (fboundp (quote set-active)) (set-active box nil)) box))) (quote ((18 0 1 0 nil 0) (0 0 1 1 nil 0) (7 0 2 0 nil 0) (26 0 3 0 nil 0) (5 0 4 1 nil 0) (4 0 6 0 nil 0) (3 0 6 1 nil 0) (6 0 7 0 nil 0) (7 1 8 0 nil 0) (7 2 9 0 nil 0) (7 3 10 0 nil 0) (7 4 11 0 nil 0) (7 5 12 0 nil 0) (7 6 13 0 nil 0) (2 0 14 0 nil 0) (8 0 14 1 nil 0) (9 0 14 2 nil 0) (10 0 14 3 nil 0) (11 0 14 4 nil 0) (12 0 14 5 nil 0) (13 0 14 6 nil 0) (17 0 16 0 nil 0) (14 0 16 1 nil 0) (15 0 17 0 nil 0) (16 0 18 0 nil 0) (1 0 25 0 nil 0) (32 0 26 0 nil 0) (31 0 26 1 nil 0) (30 0 26 2 nil 0) (29 0 26 3 nil 0) (28 0 26 4 nil 0) (27 0 26 5 nil 0) (24 0 26 6 nil 0) (23 0 26 7 nil 0) (22 0 26 8 nil 0) (21 0 26 9 nil 0) (20 0 26 10 nil 0) (19 0 26 11 nil 0))) 6.18 nil "" (om-make-point 200 200) (om-make-point 1032 432)) (quote ((om-load-inputfun (quote input-funbox) "" "input" nil) (om-load-inputfun (quote input-funbox) "" "input 2" nil) (om-load-inputfun (quote input-funbox) "" "input 3" nil) (om-load-inputfun (quote input-funbox) "" "input 4" nil) (om-load-inputfun (quote input-funbox) "" "input 5" nil) (om-load-inputfun (quote input-funbox) "" "input 6" nil) (om-load-inputfun (quote input-funbox) "" "input 7" nil) (om-load-inputfun (quote input-funbox) "" "input 8" nil) (om-load-inputfun (quote input-funbox) "" "input 9" nil) (om-load-inputfun (quote input-funbox) "" "input 10" nil) (om-load-inputfun (quote input-funbox) "" "input 11" nil) (om-load-inputfun (quote input-funbox) "" "input 12" nil))) (om-make-point 4146/7 128) nil (list nil) "l" "LINK-CHORDS-TWO-INSTANCES"))) (when (fboundp (quote set-active)) (set-active box nil)) box) (let ((box (om-load-boxcall (quote genfun) "INDEX-RULE 2" (quote omcs::index-rule) (quote ((om-load-inputfun (quote input-funbox) "function" "FUNCTION" nil) (om-load-inputfun (quote input-funbox) "list" "INDEX-NUMBERS" (list 1)))) (om-make-point 749 211) (om-make-point 64 59) nil nil nil 1))) (when (fboundp (quote set-active)) (set-active box nil)) box) (let ((box (om-load-boxcall (quote bastype) "aux 5" (quote t) (quote nil) (om-make-point 705 87) (om-make-point 177 30) (list 1 2 3 4 5 6 7 8 9 10 11 12) "(1 2 3 4 5 6 7 8 9 10 11 12)" nil))) (when (fboundp (quote set-active)) (set-active box nil)) box) (let ((box (om-load-boxcall (quote abstraction) "remove-R-RI" (om-load-patch-abs1 "remove-R-RI" (quote ((let ((box (om-load-boxout "output" 0 (om-make-point 95 239) (quote ((om-load-inputfun (quote input-funbox) "" "out" nil))) nil nil))) (when (fboundp (quote set-active)) (set-active box nil)) box) (let ((box (om-load-boxin "input" 0 (om-make-point 91 2) "" nil nil nil))) (when (fboundp (quote set-active)) (set-active box nil)) box) (let ((box (om-load-boxcall (quote lispfun) "FIRST" (quote first) (quote ((om-load-inputfun (quote input-funbox) "LIST" "LIST" nil))) (om-make-point 148 84) nil nil nil nil 1))) (when (fboundp (quote set-active)) (set-active box nil)) box) (let ((box (om-load-boxcall (quote lispfun) "REMOVE-R-RI" (quote om-ais::remove-r-ri) (quote ((om-load-inputfun (quote input-funbox) "AIS-LIST" "AIS-LIST" nil) (om-load-inputfun (quote input-funbox) "INIT-FIRST" "INIT-FIRST" nil))) (om-make-point 83 149) nil nil nil nil 1))) (when (fboundp (quote set-active)) (set-active box nil)) box))) (quote ((3 0 0 0 nil 0) (1 0 2 0 nil 0) (1 0 3 0 nil 0) (2 0 3 1 nil 0))) 6.18 nil "" (om-make-point 200 200) (om-make-point 500 400)) (quote ((om-load-inputfun (quote input-funbox) "" "input" nil))) (om-make-point 514 847/2) nil (list (list (list 0 1 4 8 7 2 11 9 3 5 10 6) (list 0 1 8 5 3 11 10 4 7 9 2 6) (list 0 1 8 5 7 10 4 3 11 9 2 6) (list 0 1 9 4 3 5 10 7 11 2 8 6) (list 0 1 9 4 7 11 10 3 5 2 8 6) (list 0 1 9 7 4 11 10 3 5 8 2 6) (list 0 1 9 8 2 5 3 10 7 11 4 6) (list 0 1 9 11 4 3 7 10 5 2 8 6) (list 0 1 9 11 4 3 10 7 5 8 2 6) (list 0 2 1 5 8 9 7 4 10 3 11 6) (list 0 2 1 8 4 7 5 10 11 3 9 6) (list 0 2 1 9 3 10 7 11 4 5 8 6) (list 0 2 1 9 10 3 7 4 11 5 8 6) (list 0 2 3 7 4 11 5 10 1 9 8 6) (list 0 2 3 7 10 5 11 4 1 9 8 6) (list 0 2 5 10 11 7 4 3 9 1 8 6) (list 0 2 5 11 10 7 3 4 9 1 8 6) (list 0 2 7 8 4 1 11 10 5 9 3 6) (list 0 2 8 1 5 3 4 11 7 10 9 6) (list 0 2 8 1 5 4 7 3 10 11 9 6) (list 0 2 8 1 5 4 11 9 10 7 3 6) (list 0 2 8 5 3 4 11 7 10 9 1 6) (list 0 2 8 5 4 7 3 10 11 9 1 6) (list 0 2 8 7 11 4 1 9 10 5 3 6) (list 0 2 8 7 11 4 5 3 10 1 9 6) (list 0 2 8 7 11 9 4 5 1 10 3 6) (list 0 2 8 11 7 4 5 3 10 9 1 6) (list 0 2 9 1 4 5 11 10 7 3 8 6) (list 0 2 9 1 10 11 5 4 7 3 8 6) (list 0 3 1 2 9 8 5 7 11 4 10 6) (list 0 3 1 10 5 4 9 11 7 8 2 6) (list 0 3 4 9 5 11 1 10 8 7 2 6) (list 0 3 4 9 11 5 1 10 8 7 2 6) (list 0 3 5 2 1 8 9 7 11 4 10 6) (list 0 3 5 10 9 4 1 11 7 8 2 6) (list 0 3 8 9 1 7 5 2 4 11 10 6) (list 0 3 8 9 7 1 5 2 4 11 10 6) (list 0 3 9 7 8 1 5 2 4 11 10 6) (list 0 3 9 11 4 5 1 10 8 7 2 6) (list 0 4 3 1 9 2 8 5 7 10 11 6) (list 0 4 3 5 2 8 1 9 7 10 11 6) (list 0 4 5 3 9 11 8 7 2 10 1 6) (list 0 4 10 7 5 8 9 2 1 3 11 6) (list 0 4 10 7 9 8 1 2 5 3 11 6))) nil "remove-R-RI"))) (when (fboundp (quote set-active)) (set-active box nil)) box) (let ((box (om-load-boxcall (quote bastype) "aux 3" (quote t) (quote nil) (om-make-point 542 318) (om-make-point 33 30) nil "nil" nil))) (when (fboundp (quote set-active)) (set-active box nil)) box) (let ((box (om-load-boxcall (quote lispfun) "TIME" (quote time) (quote ((om-load-inputfun (quote input-funbox) "FORM" "FORM" nil))) (om-make-point 955 336) nil nil nil nil 1))) (when (fboundp (quote set-active)) (set-active box nil)) box) (let ((box (om-load-boxcall (quote lispfun) "LENGTH 3" (quote length) (quote ((om-load-inputfun (quote input-funbox) "SEQUENCE" "SEQUENCE" nil))) (om-make-point 951 276) nil nil nil nil 1))) (when (fboundp (quote set-active)) (set-active box nil)) box) (let ((box (om-load-boxcomment "comment" (om-make-point 167 42) (quote "Number of possible permutations.") "" (om-make-point 26 243) nil (om-make-color 0 0 0) (om-make-font "Verdana" 12 :family "Verdana" :style (quote (:plain)) :mode (quote nil))))) (when (fboundp (quote set-active)) (set-active box nil)) box) (let ((box (om-load-boxcall (quote abstraction) "prime-form-AIS" (om-load-patch-abs1 "prime-form-AIS" (quote ((let ((box (om-load-boxout "output" 0 (om-make-point 115 436) (quote ((om-load-inputfun (quote input-funbox) "" "out" nil))) nil nil))) (when (fboundp (quote set-active)) (set-active box nil)) box) (let ((box (om-load-boxcall (quote lispfun) "=" (quote =) (quote ((om-load-inputfun (quote input-funbox) "NUM" "NUM" nil) (om-load-inputfun (quote input-funbox) "add-input" "add-input" nil))) (om-make-point 126 389) nil nil nil nil 1))) (when (fboundp (quote set-active)) (set-active box nil)) box) (let ((box (om-load-boxcall (quote genfun) "LIST-MIN" (quote list-min) (quote ((om-load-inputfun (quote input-funbox) "a list" "SELF" (list 0 1 2)))) (om-make-point 83 321) nil nil nil nil 1))) (when (fboundp (quote set-active)) (set-active box nil)) box) (let ((box (om-load-boxcall (quote lispfun) "LIST 2" (quote list) (quote ((om-load-inputfun (quote input-funbox) "add-input" "add-input" nil) (om-load-inputfun (quote input-funbox) "add-input" "add-input" nil))) (om-make-point 83 273) nil nil nil nil 1))) (when (fboundp (quote set-active)) (set-active box nil)) box) (let ((box (om-load-boxcall (quote bastype) "aux 2" (quote t) (quote nil) (om-make-point 42 213) (om-make-point 34 30) 12 "12" nil))) (when (fboundp (quote set-active)) (set-active box nil)) box) (let ((box (om-load-boxcall (quote lispfun) "MOD 2" (quote mod) (quote ((om-load-inputfun (quote input-funbox) "X" "X" nil) (om-load-inputfun (quote input-funbox) "Y" "Y" nil))) (om-make-point 24 243) nil nil nil nil 1))) (when (fboundp (quote set-active)) (set-active box nil)) box) (let ((box (om-load-boxcall (quote lispfun) "- 2" (quote -) (quote ((om-load-inputfun (quote input-funbox) "NUM" "NUM" nil) (om-load-inputfun (quote input-funbox) "add-input" "add-input" nil))) (om-make-point 14 177) nil nil nil nil 1))) (when (fboundp (quote set-active)) (set-active box nil)) box) (let ((box (om-load-boxcall (quote bastype) "list" (quote list) (quote nil) (om-make-point 1 134) (om-make-point 24 30) 12 "12" nil))) (when (fboundp (quote set-active)) (set-active box nil)) box) (let ((box (om-load-boxcall (quote bastype) "aux" (quote t) (quote nil) (om-make-point 161 80) (om-make-point 34 30) 12 "12" nil))) (when (fboundp (quote set-active)) (set-active box nil)) box) (let ((box (om-load-boxcall (quote lispfun) "MOD" (quote mod) (quote ((om-load-inputfun (quote input-funbox) "X" "X" nil) (om-load-inputfun (quote input-funbox) "Y" "Y" nil))) (om-make-point 130 115) nil nil nil nil 1))) (when (fboundp (quote set-active)) (set-active box nil)) box) (let ((box (om-load-boxcall (quote lispfun) "-" (quote -) (quote ((om-load-inputfun (quote input-funbox) "NUM" "NUM" nil) (om-load-inputfun (quote input-funbox) "add-input" "add-input" nil))) (om-make-point 130 61) nil nil nil nil 1))) (when (fboundp (quote set-active)) (set-active box nil)) box) (let ((box (om-load-boxin "?2" 1 (om-make-point 99 0) "" "?2" nil nil))) (when (fboundp (quote set-active)) (set-active box nil)) box) (let ((box (om-load-boxin "?1" 0 (om-make-point 159 0) "" "?1" nil (om-make-point 24 59)))) (when (fboundp (quote set-active)) (set-active box nil)) box))) (quote ((1 0 0 0 nil 0) (2 0 1 0 nil 0) (9 0 1 1 nil 0) (3 0 2 0 nil 0) (5 0 3 0 nil 0) (9 0 3 1 nil 0) (6 0 5 0 nil 0) (4 0 5 1 nil 0) (7 0 6 0 nil 0) (9 0 6 1 nil 0) (10 0 9 0 nil 0) (8 0 9 1 nil 0) (11 0 10 0 nil 0) (12 0 10 1 nil 0))) 6.18 nil "" (om-make-point 200 200) (om-make-point 500 400)) (quote ((om-load-inputfun (quote input-funbox) "" "?1" nil) (om-load-inputfun (quote input-funbox) "" "?2" nil))) (om-make-point 473 58) nil (list nil) "l" "prime-form-AIS"))) (when (fboundp (quote set-active)) (set-active box nil)) box) (let ((box (om-load-boxcall (quote bastype) "aux 4" (quote t) (quote nil) (om-make-point 550 58) (om-make-point 48 30) (list 1 2) "(1 2)" nil))) (when (fboundp (quote set-active)) (set-active box nil)) box) (let ((box (om-load-boxcall (quote genfun) "INDEX-RULE" (quote omcs::index-rule) (quote ((om-load-inputfun (quote input-funbox) "function" "FUNCTION" nil) (om-load-inputfun (quote input-funbox) "list" "INDEX-NUMBERS" (list 1)))) (om-make-point 523 186) nil nil nil nil 1))) (when (fboundp (quote set-active)) (set-active box nil)) box) (let ((box (om-load-boxcomment "comment 2" (om-make-point 265 49) (quote "LINK-CHORDS TWO-INSTANCES OF THE ALL-TRICHORD HEXACHORD ") "" (om-make-point 864 125) nil (om-make-color 0 0 0) (om-make-font "Verdana" 12 :family "Verdana" :style (quote (:plain)) :mode (quote nil))))) (when (fboundp (quote set-active)) (set-active box nil)) box) (let ((box (om-load-boxcall (quote lispfun) "LENGTH" (quote length) (quote ((om-load-inputfun (quote input-funbox) "SEQUENCE" "SEQUENCE" nil))) (om-make-point 424 436) nil nil nil nil 1))) (when (fboundp (quote set-active)) (set-active box nil)) box) (let ((box (om-load-editor-box1 "TEXT-VIEW 2" (quote text-view) (quote ((om-load-inputfun (quote input-funbox) "dialog-item text (string)" "text" "untitled"))) (om-make-point 398 486) (om-make-point 93 43) (let ((rep (om-make-dialog-item (quote text-view) (om-make-point 1 1) (om-make-point 69 23) "untitled"))) (om-set-dialog-item-text rep "44") rep) nil nil (pairlis (quote (winpos winsize)) (list (om-make-point 10 40) (om-make-point 335 275))) nil nil nil nil))) (when (fboundp (quote set-active)) (set-active box nil)) box) (let ((box (om-load-boxcomment "comment" (om-make-point 300 83) (quote "Based on the Patch from PWGL$(For more information, see PWGL Book, p.142,  by Mikael Laurson and Mika Kuuskankare, and PWConstraints, by Mikael Laurson.)") "" (om-make-point 64 0) nil (om-make-color 0 0 0) (om-make-font "Verdana" 12 :family "Verdana" :style (quote (:plain)) :mode (quote nil))))) (when (fboundp (quote set-active)) (set-active box nil)) box) (let ((box (om-load-boxcall (quote abstraction) "no-dup-intervals 3" (om-load-patch-abs1 "no-dup-intervals" (quote ((let ((box (om-load-boxcall (quote bastype) "aux 2" (quote t) (quote nil) (om-make-point 107 156) (om-make-point 27 30) 2 "2" nil))) (when (fboundp (quote set-active)) (set-active box nil)) box) (let ((box (om-load-boxcall (quote lispfun) "LENGTH" (quote length) (quote ((om-load-inputfun (quote input-funbox) "SEQUENCE" "SEQUENCE" nil))) (om-make-point 67 96) nil nil nil nil 1))) (when (fboundp (quote set-active)) (set-active box nil)) box) (let ((box (om-load-boxcall (quote lispfun) "<=" (quote <=) (quote ((om-load-inputfun (quote input-funbox) "NUM" "NUM" nil) (om-load-inputfun (quote input-funbox) "add-input" "add-input" nil))) (om-make-point 78 199) nil nil nil nil 1))) (when (fboundp (quote set-active)) (set-active box nil)) box) (let ((box (om-load-boxcall (quote genfun) "OMIF" (quote omif) (quote ((om-load-inputfun (quote input-funbox) "IF" "TEST" nil) (om-load-inputfun (quote input-funbox) "THEN" "ACTION" nil) (om-load-inputfun (quote input-funbox) "ELSE" "ELSE" nil))) (om-make-point 21 442) (om-make-point 274 57) nil nil nil 1))) (when (fboundp (quote set-active)) (set-active box nil)) box) (let ((box (om-load-boxcall (quote bastype) "aux" (quote t) (quote nil) (om-make-point 147 402) (om-make-point 24 30) (quote t) "t" nil))) (when (fboundp (quote set-active)) (set-active box nil)) box) (let ((box (om-load-boxcall (quote lispfun) "FIRST" (quote first) (quote ((om-load-inputfun (quote input-funbox) "LIST" "LIST" nil))) (om-make-point 198 97) nil nil nil nil 1))) (when (fboundp (quote set-active)) (set-active box nil)) box) (let ((box (om-load-boxcall (quote lispfun) "SECOND" (quote second) (quote ((om-load-inputfun (quote input-funbox) "LIST" "LIST" nil))) (om-make-point 127 98) nil nil nil nil 1))) (when (fboundp (quote set-active)) (set-active box nil)) box) (let ((box (om-load-boxcall (quote lispfun) "MEMBER" (quote member) (quote ((om-load-inputfun (quote input-funbox) "ITEM" "ITEM" nil) (om-load-inputfun (quote input-funbox) "LIST" "LIST" nil))) (om-make-point 202 328) nil nil nil nil 1))) (when (fboundp (quote set-active)) (set-active box nil)) box) (let ((box (om-load-boxcall (quote lispfun) "NOT" (quote not) (quote ((om-load-inputfun (quote input-funbox) "X" "X" nil))) (om-make-point 214 381) nil nil nil nil 1))) (when (fboundp (quote set-active)) (set-active box nil)) box) (let ((box (om-load-boxcall (quote lispfun) "CDR" (quote cdr) (quote ((om-load-inputfun (quote input-funbox) "X" "X" nil))) (om-make-point 266 279) nil nil nil nil 1))) (when (fboundp (quote set-active)) (set-active box nil)) box) (let ((box (om-load-boxcall (quote bastype) "aux 4" (quote t) (quote nil) (om-make-point 252 144) (om-make-point 34 30) 12 "12" nil))) (when (fboundp (quote set-active)) (set-active box nil)) box) (let ((box (om-load-boxcall (quote lispfun) "MOD 2" (quote mod) (quote ((om-load-inputfun (quote input-funbox) "X" "X" nil) (om-load-inputfun (quote input-funbox) "Y" "Y" nil))) (om-make-point 245 181) nil nil "l" nil 1))) (when (fboundp (quote set-active)) (set-active box nil)) box) (let ((box (om-load-boxcall (quote lispfun) "MAPCAR" (quote mapcar) (quote ((om-load-inputfun (quote input-funbox) "FUNCTION" "FUNCTION" nil) (om-load-inputfun (quote input-funbox) "LIST" "LIST" nil))) (om-make-point 257 230) nil nil nil nil 1))) (when (fboundp (quote set-active)) (set-active box nil)) box) (let ((box (om-load-boxcall (quote genfun) "X->DX" (quote x->dx) (quote ((om-load-inputfun (quote input-funbox) "a list of numbers" "SELF" (list 0 1)))) (om-make-point 291 96) nil nil nil nil 1))) (when (fboundp (quote set-active)) (set-active box nil)) box) (let ((box (om-load-boxcall (quote bastype) "aux 3" (quote t) (quote nil) (om-make-point 206 171) (om-make-point 34 30) 12 "12" nil))) (when (fboundp (quote set-active)) (set-active box nil)) box) (let ((box (om-load-boxcall (quote lispfun) "MOD" (quote mod) (quote ((om-load-inputfun (quote input-funbox) "X" "X" nil) (om-load-inputfun (quote input-funbox) "Y" "Y" nil))) (om-make-point 176 212) nil nil nil nil 1))) (when (fboundp (quote set-active)) (set-active box nil)) box) (let ((box (om-load-boxcall (quote genfun) "OM-" (quote om-) (quote ((om-load-inputfun (quote input-funbox) "number or list" "ARG1" 0) (om-load-inputfun (quote input-funbox) "number or list" "ARG2" 0))) (om-make-point 164 163) (om-make-point 24 35) nil nil nil 1))) (when (fboundp (quote set-active)) (set-active box nil)) box) (let ((box (om-load-boxcall (quote genfun) "REV-PARTIAL-SOLUTION" (quote omcs::rev-partial-solution) (quote nil) (om-make-point 126 0) nil nil nil nil 1))) (when (fboundp (quote set-active)) (set-active box nil)) box) (let ((box (om-load-boxout "output" 0 (om-make-point 134 514) (quote ((om-load-inputfun (quote input-funbox) "" "out" nil))) nil nil))) (when (fboundp (quote set-active)) (set-active box nil)) box))) (quote ((17 0 1 0 nil 0) (1 0 2 0 nil 0) (0 0 2 1 nil 0) (2 0 3 0 nil 0) (4 0 3 1 nil 0) (8 0 3 2 nil 0) (17 0 5 0 nil 0) (17 0 6 0 nil 0) (15 0 7 0 nil 0) (9 0 7 1 nil 0) (7 0 8 0 nil 0) (12 0 9 0 nil 0) (10 0 11 1 nil 0) (11 0 12 0 nil 0) (13 0 12 1 nil 0) (17 0 13 0 nil 0) (16 0 15 0 nil 0) (14 0 15 1 nil 0) (6 0 16 0 nil 0) (5 0 16 1 nil 0) (3 0 18 0 nil 0))) 6.18 nil "" (om-make-point 200 200) (om-make-point 500 400)) (quote nil) (om-make-point 400 87) nil (list nil) "l" "no-dup-intervals"))) (when (fboundp (quote set-active)) (set-active box nil)) box) (let ((box (om-load-editor-box1 "TEXT-VIEW" (quote text-view) (quote ((om-load-inputfun (quote input-funbox) "dialog-item text (string)" "text" "untitled"))) (om-make-point 57 195) (om-make-point 93 43) (let ((rep (om-make-dialog-item (quote text-view) (om-make-point 1 1) (om-make-point 69 23) "untitled"))) (om-set-dialog-item-text rep "3628800") rep) nil nil (pairlis (quote (winpos winsize)) (list (om-make-point 10 40) (om-make-point 335 275))) nil nil nil nil))) (when (fboundp (quote set-active)) (set-active box nil)) box) (let ((box (om-load-boxcall (quote bastype) "aux 11" (quote t) (quote nil) (om-make-point 90 114) (om-make-point 34 30) 10 "10" nil))) (when (fboundp (quote set-active)) (set-active box nil)) box) (let ((box (om-load-boxcall (quote lispfun) "FACTORIAL" (quote factorial) (quote ((om-load-inputfun (quote input-funbox) "N" "N" nil))) (om-make-point 79 148) nil nil nil nil 1))) (when (fboundp (quote set-active)) (set-active box nil)) box) (let ((box (om-load-boxcall (quote abstraction) "no-dup-notes 2" (om-load-patch-abs1 "no-dup-notes" (quote ((let ((box (om-load-boxcall (quote lispfun) "NOT 2" (quote not) (quote ((om-load-inputfun (quote input-funbox) "X" "X" nil))) (om-make-point 154 209) nil nil nil nil 1))) (when (fboundp (quote set-active)) (set-active box nil)) box) (let ((box (om-load-boxcall (quote lispfun) "MEMBER" (quote member) (quote ((om-load-inputfun (quote input-funbox) "ITEM" "ITEM" nil) (om-load-inputfun (quote input-funbox) "LIST" "LIST" nil))) (om-make-point 142 140) nil nil nil nil 1))) (when (fboundp (quote set-active)) (set-active box nil)) box) (let ((box (om-load-boxin "input" 0 (om-make-point 72 7) "" nil nil nil))) (when (fboundp (quote set-active)) (set-active box nil)) box) (let ((box (om-load-boxcall (quote lispfun) "CDR" (quote cdr) (quote ((om-load-inputfun (quote input-funbox) "X" "X" nil))) (om-make-point 192 82) nil nil nil nil 1))) (when (fboundp (quote set-active)) (set-active box nil)) box) (let ((box (om-load-boxcall (quote genfun) "REV-PARTIAL-SOLUTION" (quote omcs::rev-partial-solution) (quote nil) (om-make-point 195 3) nil nil nil nil 1))) (when (fboundp (quote set-active)) (set-active box nil)) box) (let ((box (om-load-boxout "output" 0 (om-make-point 143 279) (quote ((om-load-inputfun (quote input-funbox) "" "out" nil))) nil nil))) (when (fboundp (quote set-active)) (set-active box nil)) box))) (quote ((1 0 0 0 nil 0) (2 0 1 0 nil 0) (3 0 1 1 nil 0) (4 0 3 0 nil 0) (0 0 5 0 nil 0))) 6.18 nil "" (om-make-point 200 200) (om-make-point 500 400)) (quote ((om-load-inputfun (quote input-funbox) "" "input" nil))) (om-make-point 318 87) nil (list nil) "l" "no-dup-notes"))) (when (fboundp (quote set-active)) (set-active box nil)) box) (let ((box (om-load-boxcall (quote bastype) "aux 2" (quote t) (quote nil) (om-make-point 484 314) (om-make-point 38 30) (quote :all) ":all" nil))) (when (fboundp (quote set-active)) (set-active box nil)) box) (let ((box (om-load-boxcall (quote lispfun) "LIST 6" (quote list) (quote ((om-load-inputfun (quote input-funbox) "add-input" "add-input" nil) (om-load-inputfun (quote input-funbox) "add-input" "add-input" nil) (om-load-inputfun (quote input-funbox) "add-input" "add-input" nil) (om-load-inputfun (quote input-funbox) "add-input" "add-input" nil))) (om-make-point 336 273) (om-make-point 93 43) nil nil nil 1))) (when (fboundp (quote set-active)) (set-active box nil)) box) (let ((box (om-load-boxcall (quote bastype) "list 5" (quote list) (quote nil) (om-make-point 281 150) (om-make-point 37 30) (list 6) "(6)" nil))) (when (fboundp (quote set-active)) (set-active box nil)) box) (let ((box (om-load-boxcall (quote lispfun) "LIST 4" (quote list) (quote ((om-load-inputfun (quote input-funbox) "add-input" "add-input" nil))) (om-make-point 284 191) nil nil nil nil 1))) (when (fboundp (quote set-active)) (set-active box nil)) box) (let ((box (om-load-boxcall (quote genfun) "PMC-ENGINE" (quote omcs::pmc-engine) (quote ((om-load-inputfun (quote input-funbox) "s-space" "S-SPACE" nil) (om-load-inputfun (quote input-funbox) "rules" "RULES" nil) (om-load-inputfun (quote input-funbox) "heuristic-rules" "HEURISTIC-RULES" nil) (om-load-inputfun (quote input-funbox) "fwc-rules" "FWC-RULES" nil) (om-load-inputfun (quote input-funbox) "sols-mode" "SOLS-MODE" (quote :all)) (om-load-inputfun (quote input-funbox) "random?" "RND?" nil) (om-load-inputfun (quote input-funbox) "print-indexnr?" "PRINT-FL" nil))) (om-make-point 259 349) (om-make-point 378 59) nil "&" nil 1))) (when (fboundp (quote set-active)) (set-active box nil)) box) (let ((box (om-load-boxcall (quote genfun) "WILDCARD-RULE 2" (quote omcs::wildcard-rule) (quote ((om-load-inputfun (quote input-funbox) "function" "FUNCTION" nil))) (om-make-point 426 168) (om-make-point 44 59) nil nil nil 1))) (when (fboundp (quote set-active)) (set-active box nil)) box) (let ((box (om-load-boxcall (quote genfun) "WILDCARD-RULE" (quote omcs::wildcard-rule) (quote ((om-load-inputfun (quote input-funbox) "function" "FUNCTION" nil))) (om-make-point 327 165) (om-make-point 60 59) nil nil nil 1))) (when (fboundp (quote set-active)) (set-active box nil)) box) (let ((box (om-load-boxcall (quote lispfun) "LIST 3" (quote list) (quote ((om-load-inputfun (quote input-funbox) "add-input" "add-input" nil))) (om-make-point 181 186) nil nil nil nil 1))) (when (fboundp (quote set-active)) (set-active box nil)) box) (let ((box (om-load-boxcall (quote genfun) "X-APPEND" (quote x-append) (quote ((om-load-inputfun (quote input-funbox) "first element" "L1?" nil) (om-load-inputfun (quote input-funbox) "second element" "L2?" nil) (om-load-inputfun (quote input-funbox) "additional elements" "LST?" nil))) (om-make-point 216 248) nil nil nil nil 1))) (when (fboundp (quote set-active)) (set-active box nil)) box) (let ((box (om-load-boxcall (quote bastype) "aux" (quote t) (quote nil) (om-make-point 263 105) (om-make-point 34 30) 10 "10" nil))) (when (fboundp (quote set-active)) (set-active box nil)) box) (let ((box (om-load-boxcall (quote genfun) "REPEAT-N" (quote repeat-n) (quote ((om-load-inputfun (quote input-funbox) "something" "SELF" nil) (om-load-inputfun (quote input-funbox) "times" "N" 0))) (om-make-point 220 145) nil nil nil nil 1))) (when (fboundp (quote set-active)) (set-active box nil)) box) (let ((box (om-load-boxcall (quote bastype) "list 2" (quote list) (quote nil) (om-make-point 166 72) (om-make-point 149 30) (list 11 10 9 8 7 5 4 3 2 1) "(11 10 9 8 7 5 4 3 2 1)" nil))) (when (fboundp (quote set-active)) (set-active box nil)) box) (let ((box (om-load-boxcall (quote bastype) "list" (quote list) (quote nil) (om-make-point 178 148) (om-make-point 37 30) (list 0) "(0)" nil))) (when (fboundp (quote set-active)) (set-active box nil)) box))) (quote ((1 0 2 0 nil 0) (3 0 2 1 nil 0) (25 0 4 0 nil 0) (7 0 6 0 nil 0) (0 0 7 0 nil 0) (9 0 11 0 nil 0) (10 0 11 1 nil 0) (4 0 13 0 nil 0) (13 0 14 0 nil 0) (19 0 17 0 nil 0) (18 0 19 0 nil 0) (27 0 22 0 nil 0) (26 0 22 1 nil 0) (11 0 22 2 nil 0) (2 0 22 3 nil 0) (23 0 24 0 nil 0) (29 0 25 0 nil 0) (22 0 25 1 nil 0) (21 0 25 4 nil 0) (5 0 25 5 nil 0) (16 0 26 0 nil 0) (20 0 27 0 nil 0) (33 0 28 0 nil 0) (28 0 29 0 nil 0) (31 0 29 1 nil 0) (24 0 29 2 nil 0) (32 0 31 0 nil 0) (30 0 31 1 nil 0))) nil 6.18))
